<?xml version="1.0" standalone="no"?>
<!DOCTYPE svg PUBLIC "-//W3C//DTD SVG 20010904//EN"
 "http://www.w3.org/TR/2001/REC-SVG-20010904/DTD/svg10.dtd">
<svg version="1.0" xmlns="http://www.w3.org/2000/svg"
 width="501.000000pt" height="501.000000pt" viewBox="0 0 501.000000 501.000000"
 preserveAspectRatio="xMidYMid meet">
<metadata>
Created by potrace 1.16, written by Peter Selinger 2001-2019
</metadata>
<g transform="translate(0.000000,501.000000) scale(0.100000,-0.100000)"
fill="#000000" stroke="none">
<path d="M516 2513 c-12 -12 -6 -22 17 -25 20 -3 22 -9 25 -69 2 -49 -1 -69
-12 -78 -14 -11 -14 -15 -1 -28 10 -9 15 -35 15 -73 0 -71 -6 -90 -31 -90 -21
0 -27 -19 -6 -22 35 -4 134 -5 150 -1 23 6 22 19 -3 26 -19 5 -21 12 -18 78 2
40 8 74 13 76 6 2 27 -31 48 -73 36 -73 37 -76 17 -81 -11 -3 -19 -11 -17 -17
5 -14 157 -18 174 -4 7 5 13 5 17 0 4 -7 113 -10 149 -3 15 2 6 19 -13 24 -17
4 -20 14 -20 54 0 27 6 55 13 62 10 11 10 14 0 18 -9 3 -13 25 -13 63 0 65
-18 93 -45 70 -8 -7 -22 -9 -31 -6 -17 6 -54 -19 -54 -36 0 -4 9 -8 20 -8 16
0 20 -7 20 -38 0 -21 -5 -43 -11 -49 -8 -8 -8 -13 0 -17 6 -4 11 -32 11 -62
l0 -54 -34 0 c-38 0 -38 0 -121 153 l-47 88 50 49 c29 30 58 50 71 50 14 0 21
5 19 13 -3 8 -26 12 -68 12 -42 0 -65 -4 -67 -12 -3 -7 2 -13 11 -13 9 0 16
-3 16 -6 0 -7 -101 -134 -107 -134 -2 0 -3 30 -3 66 0 58 2 67 20 71 12 3 19
11 17 17 -4 12 -160 20 -171 9z"/>
<path d="M1626 2423 c-4 -5 -51 -8 -103 -8 -68 0 -97 -4 -100 -12 -3 -8 4 -13
16 -13 12 0 21 -5 21 -12 0 -19 -33 -118 -40 -118 -3 0 -14 24 -25 53 -10 28
-20 58 -23 65 -2 6 3 12 13 12 9 0 15 6 13 13 -3 8 -28 12 -78 12 -50 0 -75
-4 -77 -12 -3 -7 2 -13 11 -13 25 0 26 -15 4 -80 l-21 -63 -23 58 c-28 69 -30
85 -8 85 9 0 14 6 12 13 -3 8 -29 12 -83 12 -54 0 -80 -4 -82 -12 -3 -8 4 -13
15 -13 15 0 25 -12 37 -44 10 -25 14 -49 10 -56 -3 -6 3 -18 14 -28 11 -9 31
-44 44 -77 38 -90 54 -83 92 40 35 113 30 114 85 -23 40 -102 55 -104 88 -12
12 36 29 70 37 76 8 6 12 19 9 31 -7 27 21 93 40 93 9 0 16 -4 16 -10 0 -5 9
-10 20 -10 16 0 20 -7 20 -34 0 -18 -7 -39 -16 -47 -14 -11 -14 -13 0 -21 11
-6 16 -24 16 -59 0 -43 -3 -52 -20 -56 -12 -3 -19 -11 -17 -17 5 -16 149 -15
155 2 2 6 -3 12 -12 12 -13 0 -16 12 -16 60 0 40 4 60 12 60 9 0 9 3 0 12 -7
7 -12 34 -12 61 0 65 -21 103 -44 80z"/>
</g>
</svg>
